<svg xmlns="http://www.w3.org/2000/svg" viewBox="0 0 580.71 183.94"><defs><style>.cls-1,.cls-3{fill:#636b47;}.cls-2{fill:#8fa987;}.cls-3{opacity:0.5;}.cls-4{fill:#d46843;}.cls-5{fill:#2e2a1b;}.cls-6{fill:#231f20;}</style></defs><title>Asset 4</title><g id="Layer_2" data-name="Layer 2"><g id="Layer_1-2" data-name="Layer 1"><path class="cls-1" d="M209.28,28.7s-.47,2.64-1.52,7a187.41,187.41,0,0,1-11.55,33.59,125.8,125.8,0,0,1-10.83,19.14c-7.83,11.2-17.92,20.79-30.78,25.27H120.89l-.18,0-.75-.24-.67-.21-.23-.07h0c-.12-.05-.27-.08-.4-.14l-.79-.26s0-.08.07-.23.06-.2.1-.35l.11-.32c0-.14.09-.3.15-.47a2.53,2.53,0,0,1,.12-.36c.25-.77.6-1.78,1-3a.78.78,0,0,0,0-.14s0,0,0,0h0c.13-.38.28-.77.45-1.19.5-1.3,1.08-2.77,1.77-4.39q.12-.32.27-.63c.12-.29.25-.58.39-.88a145.49,145.49,0,0,1,7.24-14.35l.42-.72a138.18,138.18,0,0,1,12.41-17.92c.25-.32.51-.63.78-1,.62-.75,1.26-1.49,1.91-2.24.31-.36.63-.71.94-1.06l1-1c.74-.82,1.5-1.62,2.28-2.42l.7-.72,1-1c.34-.35.7-.69,1.05-1l1.07-1c.68-.64,1.37-1.28,2.08-1.91a1.07,1.07,0,0,1,.16-.14c.35-.33.71-.64,1.08-1s.76-.66,1.14-1q2.31-2,4.78-3.83l.71-.53,1.28-.94.1-.07c.71-.51,1.43-1,2.15-1.5.53-.37,1.08-.73,1.63-1.09s1.27-.83,1.92-1.24h0c.59-.36,1.17-.72,1.77-1.07l.35-.21c.53-.31,1.06-.62,1.59-.91l.75-.43,1.3-.71.72-.38c.59-.31,1.18-.62,1.78-.92q3.12-1.55,6.4-2.93A103.69,103.69,0,0,1,209.28,28.7Z"/><path class="cls-1" d="M229.71,103.72s-4.19,4.29-11.07,10H117.86s.27-.26.79-.71,1.15-1,2-1.72c6.22-5,22.26-16.6,43.63-21.09h0c2.23-.47,4.53-.86,6.87-1.16a80.74,80.74,0,0,1,43.89,6.58A97.8,97.8,0,0,1,229.71,103.72Z"/><path class="cls-2" d="M234.18,71.31a182.75,182.75,0,0,1-19.1,24.28,146.15,146.15,0,0,1-20,18.1H118.57c.15-.16.31-.35.48-.56h0l1.62-1.86.21-.21c6.84-7.55,24.81-25.24,50.65-35.32h0q3.19-1.26,6.56-2.33a105.33,105.33,0,0,1,18.1-4.12c1-.14,2-.27,3.07-.37A102.27,102.27,0,0,1,234.18,71.31Z"/><path class="cls-3" d="M234.18,71.31a182.75,182.75,0,0,1-19.1,24.28,146.15,146.15,0,0,1-20,18.1H118.57c.15-.16.31-.35.48-.56h0l1.62-1.86.21-.21c6.84-7.55,24.81-25.24,50.65-35.32h0q3.19-1.26,6.56-2.33a105.33,105.33,0,0,1,18.1-4.12c1-.14,2-.27,3.07-.37A102.27,102.27,0,0,1,234.18,71.31Z"/><path class="cls-2" d="M178.5,38.38C177,69.79,166.43,112,120.71,113.64c-.94-.29-1.89-.59-2.85-.92C117.86,112.72,132.49,61.4,178.5,38.38Z"/><path class="cls-1" d="M116.81,123.85a98.23,98.23,0,0,1-4.34-10.21,145.64,145.64,0,0,1-5.13-16.92c-6-24.89-8.15-62.91,18.36-96.72C125.7,0,186.47,92.32,116.81,123.85Z"/><path class="cls-2" d="M117.86,119.7s-4-76.2,59.18-109.16C177,10.54,194.32,119.7,117.86,119.7Z"/><path class="cls-4" d="M24.22,113.69c-1.9,1-3.74,2.15-5.52,3.31v-3.31Z"/><path class="cls-4" d="M33.1,113.69c-5.14,1.71-10,3.52-14.4,5.43V117c1.78-1.16,3.62-2.27,5.52-3.31Z"/><path class="cls-4" d="M225.67,113.69V125H206.21l-42.14,58.91h-87l-31.85-46-7.6-11c7.92-.73,14.4-1,16.05-.12,2.38,1.26,14.86-5.64,27.19-13.15Z"/><path class="cls-5" d="M109.72,105.5c-.71-2.33-1.42-4.85-2.08-7.53Z"/><path class="cls-5" d="M107.64,98l-.76-1.11.46-.14C107.44,97.14,107.55,97.56,107.64,98Z"/><path class="cls-5" d="M37.62,127C21.71,128.43,0,131.8,0,131.8c3.05-4.58,9.88-8.83,18.7-12.68V125H36.28Z"/><path class="cls-4" d="M80.86,113.69c-12.33,7.51-24.81,14.41-27.19,13.15-1.65-.87-8.13-.61-16.05.12L36.28,125H18.7v-5.91c4.39-1.91,9.26-3.72,14.4-5.43Z"/><path class="cls-5" d="M112.47,113.64s-35.59,53.75-39.11,70.3c0,0-7.28-34.2,4-60.34C52.1,141,24.22,164.17,24.22,164.17c10.48-53.95,82.57-67.45,82.57-67.45l.09.14.76,1.11c.66,2.68,1.37,5.2,2.08,7.53C110.65,108.54,111.59,111.27,112.47,113.64Z"/><path class="cls-5" d="M107.34,96.72s-13.15,8.84-26.48,17H33.1C65,103.11,107.34,96.72,107.34,96.72Z"/><path class="cls-6" d="M251.31,60.64h14.58q9,0,13.46,4.31,5.58,5.58,5.58,17.07,0,8.83-2.95,14.18a12.66,12.66,0,0,1-8.43,6.63l15.11,40H277.43l-15.06-40.23v40.23H251.31ZM262.37,97q6.45,0,9.1-3T274.13,84a32.38,32.38,0,0,0-.56-6.54A11.71,11.71,0,0,0,271.82,73a7.11,7.11,0,0,0-3.09-2.5,11.55,11.55,0,0,0-4.49-.8h-1.87Z"/><path class="cls-6" d="M337.37,103.73q0,21.76-4.84,30.92T316.3,143.8q-12,0-16.86-9.85-4.85-9.63-4.84-34.21,0-21.92,4.78-31t16.39-9.15q10.32,0,15.33,7.08,3.28,4.74,4.78,13.46Q337.38,88.2,337.37,103.73Zm-11.6,1.17q0-21.33-1.91-28.3t-7.82-7q-5.91,0-7.88,6.44t-1.91,26.07q0,18,2,25,2.07,6.6,7.77,6.6t7.66-6.17Q325.77,121.4,325.77,104.9Z"/><path class="cls-6" d="M389.46,103.73q0,21.76-4.84,30.92t-16.23,9.15q-12,0-16.86-9.85-4.84-9.63-4.85-34.21,0-21.92,4.79-31t16.39-9.15q10.32,0,15.33,7.08,3.29,4.74,4.78,13.46Q389.47,88.2,389.46,103.73Zm-11.6,1.17q0-21.33-1.91-28.3t-7.82-7q-5.91,0-7.88,6.44t-1.91,26.07q0,18,2,25,2.07,6.6,7.77,6.6t7.66-6.17Q377.86,121.4,377.86,104.9Z"/><path class="cls-6" d="M394.64,60.64h36v9.68H418.27v72.47H407.41V70.32H394.64Z"/><path class="cls-6" d="M453.44,60.64H468q9,0,13.46,4.31,5.58,5.58,5.58,17.07,0,8.83-2.95,14.18a12.66,12.66,0,0,1-8.43,6.63l15.11,40H479.57l-15.06-40.23v40.23H453.44ZM464.51,97q6.44,0,9.1-3T476.27,84a33.13,33.13,0,0,0-.56-6.54A11.71,11.71,0,0,0,474,73a7.11,7.11,0,0,0-3.09-2.5,11.55,11.55,0,0,0-4.49-.8h-1.87Z"/><path class="cls-6" d="M539.51,103.73q0,21.76-4.84,30.92t-16.23,9.15q-12,0-16.87-9.85-4.83-9.63-4.84-34.21,0-21.92,4.79-31t16.39-9.15q10.32,0,15.32,7.08,3.3,4.74,4.79,13.46Q539.51,88.2,539.51,103.73Zm-11.6,1.17q0-21.33-1.91-28.3t-7.82-7q-5.91,0-7.88,6.44t-1.91,26.07q0,18,2,25,2.07,6.6,7.77,6.6t7.66-6.17Q527.91,121.4,527.91,104.9Z"/><path class="cls-6" d="M544.69,60.64h36v9.68h-12.4v72.47H557.46V70.32H544.69Z"/><path class="cls-6" d="M260.17,154.75v3.51a5.29,5.29,0,0,0-3-1.17,3,3,0,0,0-2.32,1,3.55,3.55,0,0,0-.9,2.54,4.44,4.44,0,0,0,.64,2.41,10.37,10.37,0,0,0,1.09,1.38c.5.57,1.15,1.25,1.94,2a16.2,16.2,0,0,1,3,3.86,8.48,8.48,0,0,1,.8,3.86,7.47,7.47,0,0,1-1.75,5.1,5.74,5.74,0,0,1-4.48,1.95A6.2,6.2,0,0,1,251.3,180v-3.56a6.14,6.14,0,0,0,3.49,1.4,2.86,2.86,0,0,0,2.3-1,4,4,0,0,0,.83-2.65,5.32,5.32,0,0,0-.64-2.62,10.79,10.79,0,0,0-.92-1.27c-.39-.47-.88-1-1.47-1.6-.91-.9-1.66-1.69-2.26-2.38a10.62,10.62,0,0,1-1.33-1.82,7.86,7.86,0,0,1-.83-3.84,7.21,7.21,0,0,1,1.62-5,5.6,5.6,0,0,1,4.41-1.85A7.82,7.82,0,0,1,260.17,154.75Z"/><path class="cls-6" d="M262.78,154.2h11.71v3.15h-4V180.9h-3.53V157.35h-4.15Z"/><path class="cls-6" d="M290.09,168.21c0,4.72-.53,8.06-1.58,10a5.49,5.49,0,0,1-5.27,3,5.61,5.61,0,0,1-5.48-3.2q-1.58-3.12-1.58-11.12,0-7.12,1.56-10.08a5.54,5.54,0,0,1,5.33-3,5.7,5.7,0,0,1,5,2.29,11,11,0,0,1,1.55,4.38A44.63,44.63,0,0,1,290.09,168.21Zm-3.77.38q0-6.93-.62-9.2t-2.55-2.28a2.54,2.54,0,0,0-2.56,2.09,36.81,36.81,0,0,0-.62,8.47,33.53,33.53,0,0,0,.66,8.13,2.58,2.58,0,0,0,2.52,2.15,2.52,2.52,0,0,0,2.49-2A26.51,26.51,0,0,0,286.32,168.59Z"/><path class="cls-6" d="M293.65,154.2h4.74q3.42,0,5,1.73c1,1.16,1.56,3,1.56,5.53,0,3.56-1.05,5.85-3.13,6.89a11.53,11.53,0,0,1-4.55.71V180.9h-3.6Zm3.6,11.78a4.17,4.17,0,0,0,3.08-.9,4.78,4.78,0,0,0,.86-3.25,5.92,5.92,0,0,0-.83-3.5,3.06,3.06,0,0,0-2.61-1.1h-.5Z"/><path class="cls-6" d="M318.17,154.2h3.6v12.94l5-12.94h3.63l-5.25,12.94,5.67,13.76h-4.05l-5-13.76V180.9h-3.6Z"/><path class="cls-6" d="M333.08,154.2h3.59v26.7h-3.59Z"/><path class="cls-6" d="M340.79,154.2h3.6v23.66h5.88v3h-9.48Z"/><path class="cls-6" d="M352.52,154.2h3.59v23.66H362v3h-9.47Z"/><path class="cls-6" d="M364.24,154.2h3.6v26.7h-3.6Z"/><path class="cls-6" d="M372,154.2h3.35l3.58,10.65a97.59,97.59,0,0,1,2.75,9.64c-.29-2.07-.5-3.93-.64-5.61s-.21-3.24-.21-4.72v-10h3.62v26.7H381l-4-12c-.37-1.11-.72-2.26-1.05-3.44s-.63-2.41-.91-3.7c0-.16-.06-.36-.11-.59s-.11-.49-.18-.79c0,.3.06.55.08.77s0,.39.06.54l.19,2.72.19,3.3c0,.19,0,.41,0,.67s0,.57,0,.9l.19,11.64H372Z"/><path class="cls-6" d="M394.92,166.86h6.54v1q0,7.8-1.37,10.53t-5,2.8a5.66,5.66,0,0,1-5.44-3.11Q388,175,388,167.66q0-8.41,1.76-11.19a5.63,5.63,0,0,1,5.1-2.61,6.09,6.09,0,0,1,4.1,1.26,8.43,8.43,0,0,1,2.32,4.2l-3.36,1.4a11.41,11.41,0,0,0-.5-1.77,4,4,0,0,0-.6-1.12,2.4,2.4,0,0,0-2-.81c-1.2,0-2,.74-2.46,2.21a35.13,35.13,0,0,0-.66,8.32q0,6.07.68,8.22a2.59,2.59,0,0,0,2.54,2.14,2.44,2.44,0,0,0,2.4-1.52,13.84,13.84,0,0,0,.71-5.22V169.9h-3.13Z"/><path class="cls-6" d="M413.39,154.2h3.8L419,160c.06.17.11.36.17.57s.13.43.21.68a43.87,43.87,0,0,1,1.35,5.29c.2-1.43.38-2.43.52-3l.55-2.39.21-.93,1.48-6h3.76l-4.66,15.22V180.9H419V169.42Z"/><path class="cls-6" d="M442.32,168.21c0,4.72-.52,8.06-1.57,10a5.5,5.5,0,0,1-5.28,3A5.61,5.61,0,0,1,430,178q-1.58-3.12-1.57-11.12,0-7.12,1.55-10.08a5.55,5.55,0,0,1,5.33-3,5.68,5.68,0,0,1,5,2.29,11,11,0,0,1,1.56,4.38A45.89,45.89,0,0,1,442.32,168.21Zm-3.77.38q0-6.93-.62-9.2c-.42-1.52-1.26-2.28-2.54-2.28a2.54,2.54,0,0,0-2.56,2.09q-.63,2.12-.63,8.47a33.53,33.53,0,0,0,.66,8.13,2.59,2.59,0,0,0,2.53,2.15,2.52,2.52,0,0,0,2.49-2A26.62,26.62,0,0,0,438.55,168.59Z"/><path class="cls-6" d="M445.88,154.2h3.53v18.87a9.4,9.4,0,0,0,.52,3.84,2.22,2.22,0,0,0,2.11,1,2.26,2.26,0,0,0,2.08-.83,7.58,7.58,0,0,0,.52-3.44V154.2h3.52v19.39q0,4.35-1.33,5.9a6.27,6.27,0,0,1-4.86,1.74c-2.4,0-4.08-.75-5.07-2.25q-1-1.53-1-5.91Z"/><path class="cls-6" d="M462.28,154.2H467a6,6,0,0,1,4.37,1.4q1.82,1.82,1.82,5.55a9.52,9.52,0,0,1-1,4.61,4.12,4.12,0,0,1-2.74,2.16l4.91,13h-3.65l-4.89-13.07V180.9h-3.6Zm3.6,11.83a3.78,3.78,0,0,0,2.95-1,4.85,4.85,0,0,0,.87-3.27,10.67,10.67,0,0,0-.18-2.12,3.81,3.81,0,0,0-.57-1.44,2.28,2.28,0,0,0-1-.81,3.6,3.6,0,0,0-1.46-.26h-.6Z"/><path class="cls-6" d="M487.68,154.2h4.74q3.42,0,5,1.73c1,1.16,1.56,3,1.56,5.53,0,3.56-1,5.85-3.13,6.89a11.53,11.53,0,0,1-4.55.71V180.9h-3.6Zm3.6,11.78a4.17,4.17,0,0,0,3.08-.9,4.78,4.78,0,0,0,.86-3.25,5.84,5.84,0,0,0-.83-3.5,3.06,3.06,0,0,0-2.61-1.1h-.5Z"/><path class="cls-6" d="M501.72,154.2h3.6v23.66h5.88v3h-9.48Z"/><path class="cls-6" d="M518.67,154.2h2.8l5.73,26.7h-3.56l-1-5.2h-5.29l-1,5.2h-3.46Zm3.44,18.71-.79-4.25q-.8-4.35-1.3-9.27c-.16,1.6-.37,3.22-.62,4.87s-.56,3.38-.9,5.23l-.66,3.42Z"/><path class="cls-6" d="M529.31,154.2h3.35l3.58,10.65a94.93,94.93,0,0,1,2.75,9.64c-.29-2.07-.5-3.93-.64-5.61s-.2-3.24-.2-4.72v-10h3.61v26.7h-3.37l-4-12c-.37-1.11-.72-2.26-1.05-3.44s-.63-2.41-.91-3.7c0-.16-.06-.36-.11-.59s-.11-.49-.18-.79c0,.3.06.55.09.77s0,.39,0,.54l.19,2.72.19,3.3c0,.19,0,.41,0,.67s0,.57,0,.9l.19,11.64h-3.54Z"/><path class="cls-6" d="M543.75,154.2h11.71v3.15h-4V180.9H547.9V157.35h-4.15Z"/><path class="cls-6" d="M567.1,154.75v3.51a5.29,5.29,0,0,0-3-1.17,3,3,0,0,0-2.32,1,3.55,3.55,0,0,0-.9,2.54,4.44,4.44,0,0,0,.64,2.41,11,11,0,0,0,1.08,1.38c.51.57,1.15,1.25,2,2a16.2,16.2,0,0,1,3,3.86,8.48,8.48,0,0,1,.8,3.86,7.47,7.47,0,0,1-1.75,5.1,5.74,5.74,0,0,1-4.48,1.95,6.2,6.2,0,0,1-3.92-1.26v-3.56a6.11,6.11,0,0,0,3.49,1.4,2.86,2.86,0,0,0,2.3-1,4,4,0,0,0,.83-2.65,5.32,5.32,0,0,0-.64-2.62,12.09,12.09,0,0,0-.92-1.27c-.39-.47-.88-1-1.47-1.6-.91-.9-1.66-1.69-2.26-2.38a10.62,10.62,0,0,1-1.33-1.82,7.86,7.86,0,0,1-.83-3.84,7.21,7.21,0,0,1,1.62-5,5.6,5.6,0,0,1,4.41-1.85A7.82,7.82,0,0,1,567.1,154.75Z"/></g></g></svg>