<svg xmlns="http://www.w3.org/2000/svg" viewBox="0 0 340.41 267.38"><defs><style>.cls-1,.cls-3{fill:#636b47;}.cls-2{fill:#8fa987;}.cls-3{opacity:0.5;}.cls-4{fill:#d46843;}.cls-5{fill:#2e2a1b;}</style></defs><title>Asset 2</title><g id="Layer_2" data-name="Layer 2"><g id="Layer_1-2" data-name="Layer 1"><path class="cls-1" d="M304.21,41.72s-.67,3.83-2.2,10.17a273.5,273.5,0,0,1-16.79,48.81,182.76,182.76,0,0,1-15.75,27.83c-11.38,16.28-26,30.23-44.73,36.73h-49l-.26-.07-1.08-.34-1-.31a2.24,2.24,0,0,1-.34-.11h0l-.59-.19-1.15-.38s0-.12.1-.34.09-.3.16-.5.09-.3.15-.47.14-.44.22-.69.11-.34.17-.53c.36-1.11.87-2.57,1.52-4.34a1.67,1.67,0,0,1,.08-.2l0,0v0c.19-.54.41-1.12.65-1.72.72-1.89,1.57-4,2.58-6.39.12-.3.25-.61.39-.91s.36-.85.56-1.28a211.24,211.24,0,0,1,10.54-20.86c.19-.35.4-.7.61-1a199.7,199.7,0,0,1,18-26.06c.37-.46.76-.91,1.14-1.37.91-1.09,1.83-2.18,2.78-3.27l1.37-1.54c.46-.51.92-1,1.38-1.53,1.07-1.17,2.18-2.34,3.31-3.51l1-1c.48-.5,1-1,1.49-1.51l1.53-1.49,1.55-1.48c1-.93,2-1.86,3-2.78a2.29,2.29,0,0,1,.23-.21c.51-.47,1-.92,1.57-1.38s1.1-1,1.66-1.43q3.36-2.85,6.95-5.57c.34-.26.68-.52,1-.77.61-.46,1.23-.91,1.86-1.36l.15-.11c1-.74,2.07-1.46,3.12-2.18.78-.54,1.57-1.06,2.37-1.59s1.85-1.2,2.8-1.79l0,0c.85-.52,1.7-1.05,2.58-1.56l.5-.3c.76-.45,1.54-.9,2.31-1.33l1.1-.62c.62-.35,1.25-.7,1.89-1l1-.55,2.6-1.34c3-1.5,6.12-2.92,9.3-4.25A150.44,150.44,0,0,1,304.21,41.72Z"/><path class="cls-1" d="M333.91,150.78s-6.09,6.23-16.09,14.48H171.32s.4-.37,1.15-1,1.68-1.45,3-2.5c9-7.34,32.35-24.13,63.41-30.66h0c3.24-.69,6.57-1.26,10-1.69a117.34,117.34,0,0,1,63.8,9.56A140.79,140.79,0,0,1,333.91,150.78Z"/><path class="cls-2" d="M340.41,103.66A264.75,264.75,0,0,1,312.65,139a212.64,212.64,0,0,1-29,26.31H172.36c.21-.24.45-.51.7-.82h0c.62-.73,1.42-1.64,2.36-2.69l.29-.32c9.95-11,36.07-36.69,73.64-51.34h0c3.1-1.21,6.28-2.35,9.53-3.38a153.64,153.64,0,0,1,26.32-6c1.47-.19,3-.38,4.46-.53A148.72,148.72,0,0,1,340.41,103.66Z"/><path class="cls-3" d="M340.41,103.66A264.75,264.75,0,0,1,312.65,139a212.64,212.64,0,0,1-29,26.31H172.36c.21-.24.45-.51.7-.82h0c.62-.73,1.42-1.64,2.36-2.69l.29-.32c9.95-11,36.07-36.69,73.64-51.34h0c3.1-1.21,6.28-2.35,9.53-3.38a153.64,153.64,0,0,1,26.32-6c1.47-.19,3-.38,4.46-.53A148.72,148.72,0,0,1,340.41,103.66Z"/><path class="cls-2" d="M259.48,55.79c-2.18,45.65-17.56,107-84,109.4-1.36-.42-2.74-.85-4.14-1.33C171.32,163.86,192.59,89.26,259.48,55.79Z"/><path class="cls-1" d="M169.8,180a144.92,144.92,0,0,1-6.32-14.85A214,214,0,0,1,156,140.6C147.39,104.41,144.19,49.14,182.72,0,182.72,0,271.05,134.2,169.8,180Z"/><path class="cls-2" d="M171.32,174s-5.88-110.76,86-158.68C257.35,15.32,282.47,174,171.32,174Z"/><path class="cls-4" d="M35.21,165.26q-4.14,2.28-8,4.82v-4.82Z"/><path class="cls-4" d="M48.12,165.26c-7.48,2.48-14.56,5.11-20.93,7.9v-3.08q3.89-2.54,8-4.82Z"/><path class="cls-4" d="M328,165.26v16.49H299.75L238.5,267.38H112l-46.3-66.86-11.05-16c11.52-1.07,20.94-1.44,23.33-.18,3.46,1.84,21.61-8.2,39.53-19.12Z"/><path class="cls-5" d="M159.5,153.35c-1-3.38-2.06-7-3-10.94Z"/><path class="cls-5" d="M156.47,142.41l-1.1-1.61.67-.2C156.18,141.21,156.33,141.81,156.47,142.41Z"/><path class="cls-5" d="M54.68,184.56c-23.11,2.13-54.68,7-54.68,7,4.43-6.66,14.37-12.84,27.19-18.43v8.59H52.74Z"/><path class="cls-4" d="M117.54,165.26c-17.92,10.92-36.07,21-39.53,19.12-2.39-1.26-11.81-.89-23.33.18l-1.94-2.81H27.19v-8.59c6.37-2.79,13.45-5.42,20.93-7.9Z"/><path class="cls-5" d="M163.48,165.19s-51.73,78.13-56.84,102.19c0,0-10.59-49.72,5.76-87.7-36.67,25.24-77.19,59-77.19,59,15.23-78.43,120-98.05,120-98.05l.14.2,1.1,1.61c1,3.9,2,7.56,3,10.94C160.84,157.79,162.21,161.75,163.48,165.19Z"/><path class="cls-5" d="M156,140.6s-19.12,12.85-38.5,24.66H48.12C94.52,149.88,156,140.6,156,140.6Z"/></g></g></svg>